<svg width="24" height="24" viewBox="0 0 24 24" fill="none" xmlns="http://www.w3.org/2000/svg">
<g clip-path="url(#clip0_2037_1189)">
<path d="M6.73716 0.0840168C5.51356 0.144217 4.67799 0.348017 3.94745 0.647417C3.19152 0.954917 2.55068 1.36742 1.9131 2.03512C1.27562 2.70282 0.882895 3.37192 0.590412 4.16212C0.30732 4.92592 0.115462 5.79862 0.0614115 7.07612C0.00736152 8.35362 -0.00461764 8.76432 0.00141986 12.0231C0.00736152 15.2817 0.0211615 15.6902 0.0804824 16.9704C0.138941 18.2469 0.333482 19.1186 0.620503 19.8811C0.91567 20.67 1.3105 21.3384 1.95067 22.0039C2.59074 22.6694 3.23148 23.0782 3.99048 23.3839C4.72188 23.6789 5.55841 23.88 6.78249 23.9359C8.00657 23.9919 8.40054 24.0049 11.5226 23.9986C14.6447 23.9924 15.0378 23.9779 16.2642 23.9172C17.4909 23.8565 18.3218 23.652 19.0528 23.3539C19.8088 23.0453 20.4499 22.6339 21.0871 21.9658C21.7244 21.2976 22.1169 20.628 22.4092 19.8374C22.6925 19.0742 22.8851 18.2014 22.9382 16.925C22.9918 15.6441 23.0045 15.2352 22.9985 11.977C22.9925 8.71872 22.9784 8.31022 22.9202 7.03052C22.8621 5.75082 22.6672 4.88182 22.3804 4.11882C22.0849 3.32992 21.6904 2.66202 21.0506 1.99602C20.4108 1.33002 19.7685 0.920817 19.0112 0.616517C18.2792 0.321017 17.4433 0.119717 16.2192 0.0645168C14.9951 0.00931678 14.6012 -0.00498321 11.4779 0.00141679C8.35473 0.00761679 7.96373 0.0216168 6.73716 0.0840168ZM6.87152 21.7771C5.75027 21.7262 5.14144 21.5318 4.73568 21.3691C4.19844 21.1531 3.81568 20.892 3.41136 20.4741C3.00695 20.0563 2.75864 19.6555 2.54886 19.0961C2.39131 18.6727 2.20156 18.0381 2.14914 16.8681C2.09212 15.6036 2.08014 15.2239 2.07343 12.0201C2.06672 8.81642 2.07851 8.43712 2.1316 7.17212C2.17952 6.00312 2.36697 5.36712 2.5226 4.94392C2.7296 4.38262 2.97896 3.98392 3.38031 3.56232C3.78166 3.14062 4.16461 2.88092 4.70118 2.66202C5.10656 2.49692 5.71462 2.30062 6.83539 2.24492C8.04816 2.18492 8.41156 2.17292 11.4814 2.16592C14.5512 2.15892 14.9156 2.17092 16.1288 2.22672C17.2491 2.27752 17.8589 2.47122 18.264 2.63472C18.8014 2.85072 19.184 3.11012 19.588 3.52972C19.9922 3.94912 20.2412 4.34732 20.451 4.90842C20.6094 5.33012 20.7976 5.96442 20.8505 7.13472C20.9082 8.40022 20.9214 8.77972 20.9268 11.9827C20.9324 15.1857 20.9215 15.5661 20.8684 16.8307C20.8195 18.0007 20.6336 18.6362 20.4774 19.0601C20.2704 19.6205 20.0209 20.0201 19.6193 20.4415C19.2177 20.863 18.8353 21.1226 18.2984 21.3415C17.8936 21.5064 17.2848 21.7032 16.165 21.7589C14.9521 21.8184 14.5887 21.8309 11.5177 21.8379C8.44673 21.8449 8.08429 21.8319 6.87152 21.7771ZM16.2466 5.58642C16.2471 5.87125 16.3285 6.14954 16.4805 6.38609C16.6325 6.62265 16.8484 6.80684 17.1008 6.91537C17.3531 7.02391 17.6307 7.05191 17.8983 6.99583C18.1659 6.93975 18.4116 6.80212 18.6042 6.60034C18.7969 6.39855 18.9279 6.14169 18.9806 5.86222C19.0333 5.58276 19.0055 5.29325 18.9005 5.03032C18.7956 4.76739 18.6182 4.54284 18.391 4.38508C18.1637 4.22731 17.8967 4.14342 17.6237 4.14402C17.2578 4.14481 16.9072 4.29721 16.649 4.56769C16.3907 4.83818 16.246 5.20461 16.2466 5.58642ZM5.59521 12.012C5.60163 15.4152 8.25037 18.1677 11.511 18.1613C14.7718 18.1548 17.4115 15.3912 17.4053 11.988C17.3991 8.58482 14.7498 5.83152 11.4886 5.83822C8.22737 5.84492 5.58908 8.60922 5.59521 12.012ZM7.66665 12.0077C7.66515 11.2166 7.88851 10.4428 8.30847 9.78412C8.72843 9.12546 9.32614 8.61154 10.026 8.30735C10.7259 8.00315 11.4965 7.92234 12.2404 8.07514C12.9842 8.22794 13.668 8.60749 14.2052 9.16578C14.7423 9.72408 15.1088 10.436 15.2582 11.2117C15.4075 11.9873 15.3332 12.7917 15.0444 13.5232C14.7557 14.2547 14.2656 14.8804 13.636 15.3213C13.0065 15.7621 12.2658 15.9982 11.5077 15.9998C11.0042 16.0009 10.5055 15.8985 10.04 15.6985C9.57453 15.4985 9.15136 15.2047 8.79468 14.834C8.438 14.4633 8.1548 14.0229 7.96125 13.5379C7.7677 13.053 7.66759 12.533 7.66665 12.0077Z" fill="white"/>
</g>
<defs>
<clipPath id="clip0_2037_1189">
<rect width="24" height="24" fill="currentColor"/>
</clipPath>
</defs>
</svg>